# xmcd
#
# Track frame offsets: 
#        150
#        14488
#        29744
#        41452
#        53992
#        71833
#        83932
#        100761
#        114653
#        128782
#        142314
#        163208
#        174465
#        187631
#
# Disc length: 2713 seconds
#
# Revision: 0
# Processed by: cddbd v1.5.2PL0 Copyright (c) Steve Scherf et al.
# Submitted via: ExactAudioCopy v0.95b4
#
DISCID=c80a970e
DTITLE=Jamie Wood - Ain't No Doubt About It
DYEAR=2003
DGENRE=Blues
TTITLE0=Doin' The Boogie Woogie
TTITLE1=Kissin' In The Dark
TTITLE2=(Ain't No Doubt About It) I Got a Crush On You
TTITLE3=Look Out (Sister, Look Out)
TTITLE4=Why Don't You Do Right
TTITLE5=Let Me Off Uptown
TTITLE6=Sharp Harp
TTITLE7=You Better Find A Job
TTITLE8=Hock That Rock
TTITLE9=Don't Talk Me To Death (a.k.a. 47th Street Jive)
TTITLE10=High Time Baby
TTITLE11=Say You Don't Mean It
TTITLE12=Countless Blues
TTITLE13=Taylor's Lullaby
EXTD=
EXTT0=
EXTT1=
EXTT2=
EXTT3=
EXTT4=
EXTT5=
EXTT6=
EXTT7=
EXTT8=
EXTT9=
EXTT10=
EXTT11=
EXTT12=
EXTT13=
PLAYORDER=
